Coordinates
version=1
nRows=14
nColumns=24
inDegrees=yes

Units are S.I. units (second, meters, Newtons, ...)
If the header above contains a line with 'inDegrees', this indicates whether rotational values are in degrees (yes) or radians (no).

endheader
time	pelvis_tilt	pelvis_list	pelvis_rotation	pelvis_tx	pelvis_ty	pelvis_tz	hip_flexion_r	hip_adduction_r	hip_rotation_r	knee_angle_r	ankle_angle_r	subtalar_angle_r	mtp_angle_r	hip_flexion_l	hip_adduction_l	hip_rotation_l	knee_angle_l	ankle_angle_l	subtalar_angle_l	mtp_angle_l	lumbar_extension	lumbar_bending	lumbar_rotation
      1.81000000	      8.30849229	    -25.41234272	    -83.74905187	      0.55199101	      1.00729255	     -0.40399291	    -47.92607197	     -2.37401646	     -1.64014779	      1.24398311	     15.58342715	     -9.61864617	      0.00000000	    -13.58477480	      5.95147972	      8.69160291	     11.93489437	     -3.42357548	    -27.13561540	      0.00000000	    -43.43100912	     -8.25399491	     -0.22907306
      1.82000000	      8.98057052	    -25.35500823	    -83.67333205	      0.55372731	      1.00651128	     -0.40244783	    -48.06283648	     -3.11711608	     -3.90905477	     -0.10194600	     16.65382505	     -6.36909226	      0.00000000	    -13.70130296	      6.80261459	      9.51283237	     11.12529628	     -5.48725560	    -29.64387445	      0.00000000	    -43.39607032	     -9.01621155	     -0.37448214
      1.83000000	      9.17136811	    -25.33998834	    -83.70784675	      0.55546323	      1.00610426	     -0.40143713	    -48.20662227	     -3.43712659	     -3.86704582	     -1.23791271	     16.15666391	     -6.29074997	      0.00000000	    -13.71089962	      7.21253136	      9.65143613	     10.03998200	     -5.91257971	    -29.58965428	      0.00000000	    -43.43396452	     -9.30551101	     -0.20894842
      1.84000000	     10.04094829	    -25.33910079	    -83.62849633	      0.55720519	      1.00569670	     -0.39972001	    -48.36263963	     -4.39362311	     -5.53388780	     -2.69073199	     16.38783158	     -4.59446498	      0.00000000	    -13.92465352	      8.26362006	     10.39173165	      9.09409786	     -8.62852348	    -32.30853198	      0.00000000	    -43.48292038	    -10.27881311	     -0.41555478
      1.85000000	     10.59714819	    -25.35228867	    -83.66359020	      0.55885948	      1.00574566	     -0.39831217	    -48.40274681	     -5.09592221	     -5.93102262	     -4.17583468	     15.72445304	     -4.62235896	      0.00000000	    -14.00523854	      9.05704525	     10.21911844	      7.88925574	     -9.48194500	    -32.44705849	      0.00000000	    -43.55036252	    -10.97789394	     -0.43659390
      1.86000000	     11.30360609	    -25.47072442	    -83.56063776	      0.56080311	      1.00596993	     -0.39676303	    -48.37741120	     -5.94322072	     -7.48937126	     -6.16172443	     15.77969175	     -2.67853052	      0.00000000	    -14.33416606	      9.88786437	     11.03381148	      6.87081997	    -11.68537876	    -34.44975468	      0.00000000	    -43.73218412	    -11.70741614	     -0.57079831
      1.87000000	     11.62759004	    -25.61997784	    -83.61412309	      0.56246771	      1.00666449	     -0.39560645	    -48.24381485	     -6.45102440	     -7.58710485	     -8.09941080	     14.85668049	     -2.69728006	      0.00000000	    -14.51577258	     10.37087139	     11.15942414	      5.56837715	    -12.10531332	    -34.40710334	      0.00000000	    -43.94970153	    -12.13815200	     -0.46868056
      1.88000000	     12.60946199	    -25.72094877	    -83.51366037	      0.56415839	      1.00742948	     -0.39387671	    -48.14509806	     -7.55865906	     -8.63557243	    -10.16234847	     13.86733300	     -2.53928110	      0.00000000	    -14.70566381	     11.54365370	     10.87670669	      4.18279428	    -12.92342729	    -34.69963932	      0.00000000	    -44.12871828	    -13.20292245	     -0.72676407
      1.89000000	     13.29792559	    -25.89434158	    -83.37547181	      0.56610307	      1.00844346	     -0.39246567	    -47.87328245	     -8.42630877	     -9.77301991	    -12.58981022	     12.96744330	     -1.76405433	      0.00000000	    -14.97928062	     12.36702828	     10.99118032	      2.83216450	    -13.35666513	    -35.01267166	      0.00000000	    -44.39551513	    -13.86719660	     -0.89161455
      1.90000000	     13.88397602	    -26.03980815	    -83.21930854	      0.56817360	      1.00949652	     -0.39120896	    -47.36730068	     -9.30477159	    -11.29415880	    -15.40791725	     12.33811588	     -0.19859207	      0.00000000	    -15.23927716	     13.07590532	     11.23029986	      1.50612907	    -13.43793685	    -35.27165221	      0.00000000	    -44.63082909	    -14.39742758	     -1.06525353
      1.91000000	     14.33595856	    -26.17991306	    -83.13374550	      0.57005116	      1.01071823	     -0.39000784	    -46.80038338	    -10.02030772	    -11.91019617	    -18.11633528	     10.83038692	     -0.23216843	      0.00000000	    -15.55057953	     13.65240245	     11.26664718	      0.32385354	    -13.28156685	    -35.33649407	      0.00000000	    -44.82112340	    -14.84439040	     -1.13116414
      1.92000000	     14.80297342	    -26.30376956	    -82.99433547	      0.57210084	      1.01196667	     -0.38904570	    -46.07932677	    -10.80650254	    -12.71573287	    -21.08272397	      9.39021192	      0.02966456	      0.00000000	    -15.86070070	     14.24389149	     10.93464922	     -0.84121837	    -12.03293727	    -34.27771670	      0.00000000	    -45.02216893	    -15.23661416	     -1.28672482
      1.93000000	     15.10376066	    -26.46090291	    -82.89517174	      0.57403111	      1.01329462	     -0.38805277	    -45.30966637	    -11.40706420	    -13.07167373	    -24.01212397	      7.48965998	     -0.30656594	      0.00000000	    -16.40319462	     14.63451171	     11.14824023	     -1.62122058	    -11.56161004	    -34.43074825	      0.00000000	    -45.19665125	    -15.49137801	     -1.30881221
      1.94000000	     15.35275568	    -26.55108048	    -82.77319922	      0.57591762	      1.01468322	     -0.38749599	    -44.32353090	    -11.90233744	    -13.07784016	    -27.05916559	      5.23570443	     -1.48725531	      0.00000000	    -16.85430968	     14.96561445	     10.82621492	     -2.40074990	     -9.95470403	    -33.15220519	      0.00000000	    -45.35539525	    -15.66553969	     -1.44829442
